# xmcd
#
# Track frame offsets: 
#        150
#        27090
#        54042
#        75677
#        97480
#        117590
#        142870
#        158272
#        177897
#        190105
#
# Disc length: 2783 seconds
#
# Revision: 4
# Processed by: cddbd v1.5.2PL0 Copyright (c) Steve Scherf et al.
# Submitted via: ExactAudioCopyFreeDBPlugin 1.0
#
DISCID=740add0a
DTITLE=James Brown - The Greatest Hits of the Fourth Decade
DYEAR=1992
DGENRE=Soul
TTITLE0=Living in America
TTITLE1=Gravity
TTITLE2=Static (Parts 1 and 2)
TTITLE3=How Do You Stop
TTITLE4=Gimme Your Love
TTITLE5=I'm Real
TTITLE6=Get Up Offa That Thing - Dr. Detroit
TTITLE7=Repeat the Beat (Faith)
TTITLE8=King of Soul
TTITLE9=Cold Sweat
EXTD=
EXTT0=
EXTT1=
EXTT2=
EXTT3=
EXTT4=
EXTT5=
EXTT6=
EXTT7=
EXTT8=
EXTT9=
PLAYORDER=
